%TF.GenerationSoftware,KiCad,Pcbnew,9.0.6*%
%TF.CreationDate,2026-01-10T16:59:14-06:00*%
%TF.ProjectId,hall_effect_breakout,68616c6c-5f65-4666-9665-63745f627265,rev?*%
%TF.SameCoordinates,Original*%
%TF.FileFunction,Legend,Top*%
%TF.FilePolarity,Positive*%
%FSLAX46Y46*%
G04 Gerber Fmt 4.6, Leading zero omitted, Abs format (unit mm)*
G04 Created by KiCad (PCBNEW 9.0.6) date 2026-01-10 16:59:14*
%MOMM*%
%LPD*%
G01*
G04 APERTURE LIST*
G04 Aperture macros list*
%AMRoundRect*
0 Rectangle with rounded corners*
0 $1 Rounding radius*
0 $2 $3 $4 $5 $6 $7 $8 $9 X,Y pos of 4 corners*
0 Add a 4 corners polygon primitive as box body*
4,1,4,$2,$3,$4,$5,$6,$7,$8,$9,$2,$3,0*
0 Add four circle primitives for the rounded corners*
1,1,$1+$1,$2,$3*
1,1,$1+$1,$4,$5*
1,1,$1+$1,$6,$7*
1,1,$1+$1,$8,$9*
0 Add four rect primitives between the rounded corners*
20,1,$1+$1,$2,$3,$4,$5,0*
20,1,$1+$1,$4,$5,$6,$7,0*
20,1,$1+$1,$6,$7,$8,$9,0*
20,1,$1+$1,$8,$9,$2,$3,0*%
G04 Aperture macros list end*
%ADD10C,0.150000*%
%ADD11C,0.120000*%
%ADD12C,4.000000*%
%ADD13RoundRect,0.250000X-0.601041X0.954594X-0.954594X0.601041X0.601041X-0.954594X0.954594X-0.601041X0*%
%ADD14RoundRect,0.150000X-0.388909X0.601041X-0.601041X0.388909X0.388909X-0.601041X0.601041X-0.388909X0*%
%ADD15RoundRect,0.250000X-0.400000X-0.450000X0.400000X-0.450000X0.400000X0.450000X-0.400000X0.450000X0*%
%ADD16RoundRect,0.200000X-0.200000X-0.275000X0.200000X-0.275000X0.200000X0.275000X-0.200000X0.275000X0*%
%ADD17RoundRect,0.218750X-0.218750X-0.256250X0.218750X-0.256250X0.218750X0.256250X-0.218750X0.256250X0*%
G04 APERTURE END LIST*
D10*
X93868612Y-93679517D02*
X94373688Y-94184593D01*
X94373688Y-94184593D02*
X94441032Y-94319280D01*
X94441032Y-94319280D02*
X94441032Y-94453967D01*
X94441032Y-94453967D02*
X94373688Y-94588654D01*
X94373688Y-94588654D02*
X94306345Y-94655998D01*
X94137986Y-93410143D02*
X94575719Y-92972410D01*
X94575719Y-92972410D02*
X94609391Y-93477486D01*
X94609391Y-93477486D02*
X94710406Y-93376471D01*
X94710406Y-93376471D02*
X94811421Y-93342799D01*
X94811421Y-93342799D02*
X94878765Y-93342799D01*
X94878765Y-93342799D02*
X94979780Y-93376471D01*
X94979780Y-93376471D02*
X95148139Y-93544830D01*
X95148139Y-93544830D02*
X95181810Y-93645845D01*
X95181810Y-93645845D02*
X95181810Y-93713188D01*
X95181810Y-93713188D02*
X95148139Y-93814204D01*
X95148139Y-93814204D02*
X94946108Y-94016234D01*
X94946108Y-94016234D02*
X94845093Y-94049906D01*
X94845093Y-94049906D02*
X94777749Y-94049906D01*
X105306905Y-104499819D02*
X105306905Y-103499819D01*
X105306905Y-103499819D02*
X105545000Y-103499819D01*
X105545000Y-103499819D02*
X105687857Y-103547438D01*
X105687857Y-103547438D02*
X105783095Y-103642676D01*
X105783095Y-103642676D02*
X105830714Y-103737914D01*
X105830714Y-103737914D02*
X105878333Y-103928390D01*
X105878333Y-103928390D02*
X105878333Y-104071247D01*
X105878333Y-104071247D02*
X105830714Y-104261723D01*
X105830714Y-104261723D02*
X105783095Y-104356961D01*
X105783095Y-104356961D02*
X105687857Y-104452200D01*
X105687857Y-104452200D02*
X105545000Y-104499819D01*
X105545000Y-104499819D02*
X105306905Y-104499819D01*
X106259286Y-103595057D02*
X106306905Y-103547438D01*
X106306905Y-103547438D02*
X106402143Y-103499819D01*
X106402143Y-103499819D02*
X106640238Y-103499819D01*
X106640238Y-103499819D02*
X106735476Y-103547438D01*
X106735476Y-103547438D02*
X106783095Y-103595057D01*
X106783095Y-103595057D02*
X106830714Y-103690295D01*
X106830714Y-103690295D02*
X106830714Y-103785533D01*
X106830714Y-103785533D02*
X106783095Y-103928390D01*
X106783095Y-103928390D02*
X106211667Y-104499819D01*
X106211667Y-104499819D02*
X106830714Y-104499819D01*
X107109286Y-97084819D02*
X107680714Y-97084819D01*
X107395000Y-98084819D02*
X107395000Y-97084819D01*
X108014048Y-98084819D02*
X108014048Y-97084819D01*
X108014048Y-97561009D02*
X108585476Y-97561009D01*
X108585476Y-98084819D02*
X108585476Y-97084819D01*
X109585476Y-98084819D02*
X109014048Y-98084819D01*
X109299762Y-98084819D02*
X109299762Y-97084819D01*
X109299762Y-97084819D02*
X109204524Y-97227676D01*
X109204524Y-97227676D02*
X109109286Y-97322914D01*
X109109286Y-97322914D02*
X109014048Y-97370533D01*
X108228333Y-101894819D02*
X107895000Y-101418628D01*
X107656905Y-101894819D02*
X107656905Y-100894819D01*
X107656905Y-100894819D02*
X108037857Y-100894819D01*
X108037857Y-100894819D02*
X108133095Y-100942438D01*
X108133095Y-100942438D02*
X108180714Y-100990057D01*
X108180714Y-100990057D02*
X108228333Y-101085295D01*
X108228333Y-101085295D02*
X108228333Y-101228152D01*
X108228333Y-101228152D02*
X108180714Y-101323390D01*
X108180714Y-101323390D02*
X108133095Y-101371009D01*
X108133095Y-101371009D02*
X108037857Y-101418628D01*
X108037857Y-101418628D02*
X107656905Y-101418628D01*
X109180714Y-101894819D02*
X108609286Y-101894819D01*
X108895000Y-101894819D02*
X108895000Y-100894819D01*
X108895000Y-100894819D02*
X108799762Y-101037676D01*
X108799762Y-101037676D02*
X108704524Y-101132914D01*
X108704524Y-101132914D02*
X108609286Y-101180533D01*
X101344405Y-100624819D02*
X101344405Y-99624819D01*
X101344405Y-99624819D02*
X101582500Y-99624819D01*
X101582500Y-99624819D02*
X101725357Y-99672438D01*
X101725357Y-99672438D02*
X101820595Y-99767676D01*
X101820595Y-99767676D02*
X101868214Y-99862914D01*
X101868214Y-99862914D02*
X101915833Y-100053390D01*
X101915833Y-100053390D02*
X101915833Y-100196247D01*
X101915833Y-100196247D02*
X101868214Y-100386723D01*
X101868214Y-100386723D02*
X101820595Y-100481961D01*
X101820595Y-100481961D02*
X101725357Y-100577200D01*
X101725357Y-100577200D02*
X101582500Y-100624819D01*
X101582500Y-100624819D02*
X101344405Y-100624819D01*
X102868214Y-100624819D02*
X102296786Y-100624819D01*
X102582500Y-100624819D02*
X102582500Y-99624819D01*
X102582500Y-99624819D02*
X102487262Y-99767676D01*
X102487262Y-99767676D02*
X102392024Y-99862914D01*
X102392024Y-99862914D02*
X102296786Y-99910533D01*
D11*
%TO.C,J3*%
X88037467Y-95133928D02*
X89062772Y-96159233D01*
X89062772Y-96159233D02*
X90335564Y-94886441D01*
X95546941Y-89675064D02*
X96246977Y-90375100D01*
X92902362Y-86280952D02*
X86941452Y-92241862D01*
X95794428Y-87376967D02*
X96819733Y-88402272D01*
X96819733Y-88402272D02*
X95546941Y-89675064D01*
%TO.C,D2*%
X103685000Y-105035000D02*
X103685000Y-107055000D01*
X103685000Y-105035000D02*
X107445000Y-105035000D01*
X103685000Y-107055000D02*
X107445000Y-107055000D01*
%TO.C,TH1*%
X108157742Y-98537500D02*
X108632258Y-98537500D01*
X108157742Y-99582500D02*
X108632258Y-99582500D01*
%TO.C,R1*%
X108157742Y-103392500D02*
X108632258Y-103392500D01*
X108157742Y-102347500D02*
X108632258Y-102347500D01*
%TO.C,D1*%
X100597500Y-100865000D02*
X100597500Y-102335000D01*
X100597500Y-102335000D02*
X102882500Y-102335000D01*
X102882500Y-100865000D02*
X100597500Y-100865000D01*
%TD*%
%LPC*%
D12*
%TO.C,H10*%
X115570000Y-101600000D03*
%TD*%
%TO.C,H11*%
X87630000Y-101600000D03*
%TD*%
%TO.C,H12*%
X101600000Y-115570000D03*
%TD*%
%TO.C,H13*%
X101600000Y-87630000D03*
%TD*%
D13*
%TO.C,J3*%
X87259650Y-93634862D03*
X94295362Y-86599150D03*
D14*
X90830539Y-94589456D03*
X91714422Y-93705573D03*
X92598306Y-92821689D03*
X93482189Y-91937806D03*
X94366073Y-91053922D03*
X95249956Y-90170039D03*
%TD*%
D15*
%TO.C,D2*%
X104595000Y-106045000D03*
X107495000Y-106045000D03*
%TD*%
D16*
%TO.C,TH1*%
X107570000Y-99060000D03*
X109220000Y-99060000D03*
%TD*%
%TO.C,R1*%
X109220000Y-102870000D03*
X107570000Y-102870000D03*
%TD*%
D17*
%TO.C,D1*%
X101295000Y-101600000D03*
X102870000Y-101600000D03*
%TD*%
%LPD*%
M02*
