%TF.GenerationSoftware,KiCad,Pcbnew,9.0.6*%
%TF.CreationDate,2026-01-10T16:59:14-06:00*%
%TF.ProjectId,hall_effect_breakout,68616c6c-5f65-4666-9665-63745f627265,rev?*%
%TF.SameCoordinates,Original*%
%TF.FileFunction,Copper,L2,Bot*%
%TF.FilePolarity,Positive*%
%FSLAX46Y46*%
G04 Gerber Fmt 4.6, Leading zero omitted, Abs format (unit mm)*
G04 Created by KiCad (PCBNEW 9.0.6) date 2026-01-10 16:59:14*
%MOMM*%
%LPD*%
G01*
G04 APERTURE LIST*
G04 Aperture macros list*
%AMRoundRect*
0 Rectangle with rounded corners*
0 $1 Rounding radius*
0 $2 $3 $4 $5 $6 $7 $8 $9 X,Y pos of 4 corners*
0 Add a 4 corners polygon primitive as box body*
4,1,4,$2,$3,$4,$5,$6,$7,$8,$9,$2,$3,0*
0 Add four circle primitives for the rounded corners*
1,1,$1+$1,$2,$3*
1,1,$1+$1,$4,$5*
1,1,$1+$1,$6,$7*
1,1,$1+$1,$8,$9*
0 Add four rect primitives between the rounded corners*
20,1,$1+$1,$2,$3,$4,$5,0*
20,1,$1+$1,$4,$5,$6,$7,0*
20,1,$1+$1,$6,$7,$8,$9,0*
20,1,$1+$1,$8,$9,$2,$3,0*%
G04 Aperture macros list end*
%TA.AperFunction,SMDPad,CuDef*%
%ADD10C,1.500000*%
%TD*%
%TA.AperFunction,SMDPad,CuDef*%
%ADD11RoundRect,0.225000X0.225000X0.250000X-0.225000X0.250000X-0.225000X-0.250000X0.225000X-0.250000X0*%
%TD*%
%TA.AperFunction,SMDPad,CuDef*%
%ADD12RoundRect,0.100000X0.637500X0.100000X-0.637500X0.100000X-0.637500X-0.100000X0.637500X-0.100000X0*%
%TD*%
%TA.AperFunction,ViaPad*%
%ADD13C,0.600000*%
%TD*%
%TA.AperFunction,Conductor*%
%ADD14C,0.200000*%
%TD*%
G04 APERTURE END LIST*
D10*
%TO.P,5V,1,1*%
%TO.N,+5V*%
X91440000Y-107950000D03*
%TD*%
%TO.P,GND,1,1*%
%TO.N,GND*%
X111760000Y-107950000D03*
%TD*%
%TO.P,TMP,1,1*%
%TO.N,/Temp*%
X95250000Y-107950000D03*
%TD*%
D11*
%TO.P,C1,2*%
%TO.N,Net-(U1-GND)*%
X93700000Y-99060000D03*
%TO.P,C1,1*%
%TO.N,Net-(U1-VDD3V)*%
X95250000Y-99060000D03*
%TD*%
%TO.P,C2,2*%
%TO.N,Net-(U1-VDD5V)*%
X93700000Y-102870000D03*
%TO.P,C2,1*%
%TO.N,+5V*%
X95250000Y-102870000D03*
%TD*%
D12*
%TO.P,U1,1,~{CSn}*%
%TO.N,/H3{slash}CS*%
X104462500Y-99650000D03*
%TO.P,U1,2,CLK*%
%TO.N,/H1{slash}SCK*%
X104462500Y-100300000D03*
%TO.P,U1,3,MISO*%
%TO.N,/H2{slash}MISO*%
X104462500Y-100950000D03*
%TO.P,U1,4,MOSI*%
%TO.N,+3.3V*%
X104462500Y-101600000D03*
%TO.P,U1,5,TEST*%
%TO.N,unconnected-(U1-TEST-Pad5)*%
X104462500Y-102250000D03*
%TO.P,U1,6,TEST*%
%TO.N,unconnected-(U1-TEST-Pad6)*%
X104462500Y-102900000D03*
%TO.P,U1,7,TEST*%
%TO.N,unconnected-(U1-TEST-Pad7)*%
X104462500Y-103550000D03*
%TO.P,U1,8,TEST*%
%TO.N,unconnected-(U1-TEST-Pad8)*%
X98737500Y-103550000D03*
%TO.P,U1,9,TEST*%
%TO.N,unconnected-(U1-TEST-Pad9)*%
X98737500Y-102900000D03*
%TO.P,U1,10,TEST*%
%TO.N,unconnected-(U1-TEST-Pad10)*%
X98737500Y-102250000D03*
%TO.P,U1,11,VDD5V*%
%TO.N,Net-(U1-VDD5V)*%
X98737500Y-101600000D03*
%TO.P,U1,12,VDD3V*%
%TO.N,Net-(U1-VDD3V)*%
X98737500Y-100950000D03*
%TO.P,U1,13,GND*%
%TO.N,Net-(U1-GND)*%
X98737500Y-100300000D03*
%TO.P,U1,14,PWM*%
%TO.N,unconnected-(U1-PWM-Pad14)*%
X98737500Y-99650000D03*
%TD*%
D10*
%TO.P,H1,1,1*%
%TO.N,/H1{slash}SCK*%
X99060000Y-107950000D03*
%TD*%
%TO.P,H2,1,1*%
%TO.N,/H2{slash}MISO*%
X104140000Y-107950000D03*
%TD*%
%TO.P,H3,1,1*%
%TO.N,/H3{slash}CS*%
X107950000Y-107950000D03*
%TD*%
D13*
%TO.N,GND*%
X111125000Y-104775000D03*
%TO.N,/H1{slash}SCK*%
X96520000Y-96520000D03*
%TO.N,+5V*%
X92710000Y-102094000D03*
%TO.N,/Temp*%
X99975000Y-102965000D03*
%TO.N,/H2{slash}MISO*%
X99060000Y-97155000D03*
%TO.N,/H3{slash}CS*%
X100330000Y-96520000D03*
%TD*%
D14*
%TO.N,Net-(U1-GND)*%
X97715100Y-100300000D02*
X98737500Y-100300000D01*
X95699100Y-98284000D02*
X97715100Y-100300000D01*
X94476000Y-98284000D02*
X95699100Y-98284000D01*
X93700000Y-99060000D02*
X94476000Y-98284000D01*
%TO.N,Net-(U1-VDD3V)*%
X97140000Y-100950000D02*
X98737500Y-100950000D01*
X95250000Y-99060000D02*
X97140000Y-100950000D01*
%TO.N,Net-(U1-VDD5V)*%
X94476000Y-103646000D02*
X93700000Y-102870000D01*
X95699100Y-103646000D02*
X94476000Y-103646000D01*
X97745100Y-101600000D02*
X95699100Y-103646000D01*
X98737500Y-101600000D02*
X97745100Y-101600000D01*
%TO.N,GND*%
X111760000Y-105410000D02*
X111125000Y-104775000D01*
X111760000Y-107950000D02*
X111760000Y-105410000D01*
%TO.N,/H1{slash}SCK*%
X103055000Y-100300000D02*
X104462000Y-100300000D01*
X99274900Y-96520000D02*
X103055000Y-100300000D01*
X96520000Y-96520000D02*
X99274900Y-96520000D01*
X104462000Y-100300000D02*
X103055000Y-100300000D01*
X105120000Y-100300000D02*
X104462000Y-100300000D01*
X106045000Y-101225000D02*
X105120000Y-100300000D01*
X106045000Y-108058000D02*
X106045000Y-101225000D01*
X104883000Y-109220000D02*
X106045000Y-108058000D01*
X100330000Y-109220000D02*
X104883000Y-109220000D01*
X99060000Y-107950000D02*
X100330000Y-109220000D01*
%TO.N,+5V*%
X92710000Y-106680000D02*
X91440000Y-107950000D01*
X92710000Y-102094000D02*
X92710000Y-106680000D01*
X94474000Y-102094000D02*
X95250000Y-102870000D01*
X92710000Y-102094000D02*
X94474000Y-102094000D01*
%TO.N,/Temp*%
X99975000Y-104286000D02*
X99975000Y-102965000D01*
X96310700Y-107950000D02*
X99975000Y-104286000D01*
X95250000Y-107950000D02*
X96310700Y-107950000D01*
%TO.N,/H2{slash}MISO*%
X102855000Y-100950000D02*
X102870000Y-100950000D01*
X99060000Y-97155000D02*
X102855000Y-100950000D01*
X102870000Y-106680000D02*
X102870000Y-100950000D01*
X104140000Y-107950000D02*
X102870000Y-106680000D01*
X102870000Y-100950000D02*
X104462000Y-100950000D01*
X104462500Y-100950000D02*
X104462000Y-100950000D01*
%TO.N,/H3{slash}CS*%
X103460000Y-99650000D02*
X104462000Y-99650000D01*
X100330000Y-96520000D02*
X103460000Y-99650000D01*
X106680000Y-106680000D02*
X107950000Y-107950000D01*
X106680000Y-101130000D02*
X106680000Y-106680000D01*
X105200000Y-99650000D02*
X106680000Y-101130000D01*
X104462000Y-99650000D02*
X105200000Y-99650000D01*
%TD*%
M02*
