%TF.GenerationSoftware,KiCad,Pcbnew,9.0.6*%
%TF.CreationDate,2026-01-10T16:59:14-06:00*%
%TF.ProjectId,hall_effect_breakout,68616c6c-5f65-4666-9665-63745f627265,rev?*%
%TF.SameCoordinates,Original*%
%TF.FileFunction,Legend,Bot*%
%TF.FilePolarity,Positive*%
%FSLAX46Y46*%
G04 Gerber Fmt 4.6, Leading zero omitted, Abs format (unit mm)*
G04 Created by KiCad (PCBNEW 9.0.6) date 2026-01-10 16:59:14*
%MOMM*%
%LPD*%
G01*
G04 APERTURE LIST*
G04 Aperture macros list*
%AMRoundRect*
0 Rectangle with rounded corners*
0 $1 Rounding radius*
0 $2 $3 $4 $5 $6 $7 $8 $9 X,Y pos of 4 corners*
0 Add a 4 corners polygon primitive as box body*
4,1,4,$2,$3,$4,$5,$6,$7,$8,$9,$2,$3,0*
0 Add four circle primitives for the rounded corners*
1,1,$1+$1,$2,$3*
1,1,$1+$1,$4,$5*
1,1,$1+$1,$6,$7*
1,1,$1+$1,$8,$9*
0 Add four rect primitives between the rounded corners*
20,1,$1+$1,$2,$3,$4,$5,0*
20,1,$1+$1,$4,$5,$6,$7,0*
20,1,$1+$1,$6,$7,$8,$9,0*
20,1,$1+$1,$8,$9,$2,$3,0*%
G04 Aperture macros list end*
%ADD10C,0.150000*%
%ADD11C,0.120000*%
%ADD12C,1.500000*%
%ADD13C,4.000000*%
%ADD14RoundRect,0.225000X0.225000X0.250000X-0.225000X0.250000X-0.225000X-0.250000X0.225000X-0.250000X0*%
%ADD15RoundRect,0.100000X0.637500X0.100000X-0.637500X0.100000X-0.637500X-0.100000X0.637500X-0.100000X0*%
G04 APERTURE END LIST*
D10*
X91630476Y-109052819D02*
X92106666Y-109052819D01*
X92106666Y-109052819D02*
X92154285Y-109529009D01*
X92154285Y-109529009D02*
X92106666Y-109481390D01*
X92106666Y-109481390D02*
X92011428Y-109433771D01*
X92011428Y-109433771D02*
X91773333Y-109433771D01*
X91773333Y-109433771D02*
X91678095Y-109481390D01*
X91678095Y-109481390D02*
X91630476Y-109529009D01*
X91630476Y-109529009D02*
X91582857Y-109624247D01*
X91582857Y-109624247D02*
X91582857Y-109862342D01*
X91582857Y-109862342D02*
X91630476Y-109957580D01*
X91630476Y-109957580D02*
X91678095Y-110005200D01*
X91678095Y-110005200D02*
X91773333Y-110052819D01*
X91773333Y-110052819D02*
X92011428Y-110052819D01*
X92011428Y-110052819D02*
X92106666Y-110005200D01*
X92106666Y-110005200D02*
X92154285Y-109957580D01*
X91297142Y-109052819D02*
X90963809Y-110052819D01*
X90963809Y-110052819D02*
X90630476Y-109052819D01*
X112521904Y-109100438D02*
X112617142Y-109052819D01*
X112617142Y-109052819D02*
X112759999Y-109052819D01*
X112759999Y-109052819D02*
X112902856Y-109100438D01*
X112902856Y-109100438D02*
X112998094Y-109195676D01*
X112998094Y-109195676D02*
X113045713Y-109290914D01*
X113045713Y-109290914D02*
X113093332Y-109481390D01*
X113093332Y-109481390D02*
X113093332Y-109624247D01*
X113093332Y-109624247D02*
X113045713Y-109814723D01*
X113045713Y-109814723D02*
X112998094Y-109909961D01*
X112998094Y-109909961D02*
X112902856Y-110005200D01*
X112902856Y-110005200D02*
X112759999Y-110052819D01*
X112759999Y-110052819D02*
X112664761Y-110052819D01*
X112664761Y-110052819D02*
X112521904Y-110005200D01*
X112521904Y-110005200D02*
X112474285Y-109957580D01*
X112474285Y-109957580D02*
X112474285Y-109624247D01*
X112474285Y-109624247D02*
X112664761Y-109624247D01*
X112045713Y-110052819D02*
X112045713Y-109052819D01*
X112045713Y-109052819D02*
X111474285Y-110052819D01*
X111474285Y-110052819D02*
X111474285Y-109052819D01*
X110998094Y-110052819D02*
X110998094Y-109052819D01*
X110998094Y-109052819D02*
X110759999Y-109052819D01*
X110759999Y-109052819D02*
X110617142Y-109100438D01*
X110617142Y-109100438D02*
X110521904Y-109195676D01*
X110521904Y-109195676D02*
X110474285Y-109290914D01*
X110474285Y-109290914D02*
X110426666Y-109481390D01*
X110426666Y-109481390D02*
X110426666Y-109624247D01*
X110426666Y-109624247D02*
X110474285Y-109814723D01*
X110474285Y-109814723D02*
X110521904Y-109909961D01*
X110521904Y-109909961D02*
X110617142Y-110005200D01*
X110617142Y-110005200D02*
X110759999Y-110052819D01*
X110759999Y-110052819D02*
X110998094Y-110052819D01*
X96607142Y-109052819D02*
X96035714Y-109052819D01*
X96321428Y-110052819D02*
X96321428Y-109052819D01*
X95702380Y-110052819D02*
X95702380Y-109052819D01*
X95702380Y-109052819D02*
X95369047Y-109767104D01*
X95369047Y-109767104D02*
X95035714Y-109052819D01*
X95035714Y-109052819D02*
X95035714Y-110052819D01*
X94559523Y-110052819D02*
X94559523Y-109052819D01*
X94559523Y-109052819D02*
X94178571Y-109052819D01*
X94178571Y-109052819D02*
X94083333Y-109100438D01*
X94083333Y-109100438D02*
X94035714Y-109148057D01*
X94035714Y-109148057D02*
X93988095Y-109243295D01*
X93988095Y-109243295D02*
X93988095Y-109386152D01*
X93988095Y-109386152D02*
X94035714Y-109481390D01*
X94035714Y-109481390D02*
X94083333Y-109529009D01*
X94083333Y-109529009D02*
X94178571Y-109576628D01*
X94178571Y-109576628D02*
X94559523Y-109576628D01*
X94641666Y-97989580D02*
X94689285Y-98037200D01*
X94689285Y-98037200D02*
X94832142Y-98084819D01*
X94832142Y-98084819D02*
X94927380Y-98084819D01*
X94927380Y-98084819D02*
X95070237Y-98037200D01*
X95070237Y-98037200D02*
X95165475Y-97941961D01*
X95165475Y-97941961D02*
X95213094Y-97846723D01*
X95213094Y-97846723D02*
X95260713Y-97656247D01*
X95260713Y-97656247D02*
X95260713Y-97513390D01*
X95260713Y-97513390D02*
X95213094Y-97322914D01*
X95213094Y-97322914D02*
X95165475Y-97227676D01*
X95165475Y-97227676D02*
X95070237Y-97132438D01*
X95070237Y-97132438D02*
X94927380Y-97084819D01*
X94927380Y-97084819D02*
X94832142Y-97084819D01*
X94832142Y-97084819D02*
X94689285Y-97132438D01*
X94689285Y-97132438D02*
X94641666Y-97180057D01*
X93689285Y-98084819D02*
X94260713Y-98084819D01*
X93974999Y-98084819D02*
X93974999Y-97084819D01*
X93974999Y-97084819D02*
X94070237Y-97227676D01*
X94070237Y-97227676D02*
X94165475Y-97322914D01*
X94165475Y-97322914D02*
X94260713Y-97370533D01*
X94641666Y-101799580D02*
X94689285Y-101847200D01*
X94689285Y-101847200D02*
X94832142Y-101894819D01*
X94832142Y-101894819D02*
X94927380Y-101894819D01*
X94927380Y-101894819D02*
X95070237Y-101847200D01*
X95070237Y-101847200D02*
X95165475Y-101751961D01*
X95165475Y-101751961D02*
X95213094Y-101656723D01*
X95213094Y-101656723D02*
X95260713Y-101466247D01*
X95260713Y-101466247D02*
X95260713Y-101323390D01*
X95260713Y-101323390D02*
X95213094Y-101132914D01*
X95213094Y-101132914D02*
X95165475Y-101037676D01*
X95165475Y-101037676D02*
X95070237Y-100942438D01*
X95070237Y-100942438D02*
X94927380Y-100894819D01*
X94927380Y-100894819D02*
X94832142Y-100894819D01*
X94832142Y-100894819D02*
X94689285Y-100942438D01*
X94689285Y-100942438D02*
X94641666Y-100990057D01*
X94260713Y-100990057D02*
X94213094Y-100942438D01*
X94213094Y-100942438D02*
X94117856Y-100894819D01*
X94117856Y-100894819D02*
X93879761Y-100894819D01*
X93879761Y-100894819D02*
X93784523Y-100942438D01*
X93784523Y-100942438D02*
X93736904Y-100990057D01*
X93736904Y-100990057D02*
X93689285Y-101085295D01*
X93689285Y-101085295D02*
X93689285Y-101180533D01*
X93689285Y-101180533D02*
X93736904Y-101323390D01*
X93736904Y-101323390D02*
X94308332Y-101894819D01*
X94308332Y-101894819D02*
X93689285Y-101894819D01*
X102361904Y-97604819D02*
X102361904Y-98414342D01*
X102361904Y-98414342D02*
X102314285Y-98509580D01*
X102314285Y-98509580D02*
X102266666Y-98557200D01*
X102266666Y-98557200D02*
X102171428Y-98604819D01*
X102171428Y-98604819D02*
X101980952Y-98604819D01*
X101980952Y-98604819D02*
X101885714Y-98557200D01*
X101885714Y-98557200D02*
X101838095Y-98509580D01*
X101838095Y-98509580D02*
X101790476Y-98414342D01*
X101790476Y-98414342D02*
X101790476Y-97604819D01*
X100790476Y-98604819D02*
X101361904Y-98604819D01*
X101076190Y-98604819D02*
X101076190Y-97604819D01*
X101076190Y-97604819D02*
X101171428Y-97747676D01*
X101171428Y-97747676D02*
X101266666Y-97842914D01*
X101266666Y-97842914D02*
X101361904Y-97890533D01*
X99821904Y-110052819D02*
X99821904Y-109052819D01*
X99821904Y-109529009D02*
X99250476Y-109529009D01*
X99250476Y-110052819D02*
X99250476Y-109052819D01*
X98250476Y-110052819D02*
X98821904Y-110052819D01*
X98536190Y-110052819D02*
X98536190Y-109052819D01*
X98536190Y-109052819D02*
X98631428Y-109195676D01*
X98631428Y-109195676D02*
X98726666Y-109290914D01*
X98726666Y-109290914D02*
X98821904Y-109338533D01*
X104901904Y-110052819D02*
X104901904Y-109052819D01*
X104901904Y-109529009D02*
X104330476Y-109529009D01*
X104330476Y-110052819D02*
X104330476Y-109052819D01*
X103901904Y-109148057D02*
X103854285Y-109100438D01*
X103854285Y-109100438D02*
X103759047Y-109052819D01*
X103759047Y-109052819D02*
X103520952Y-109052819D01*
X103520952Y-109052819D02*
X103425714Y-109100438D01*
X103425714Y-109100438D02*
X103378095Y-109148057D01*
X103378095Y-109148057D02*
X103330476Y-109243295D01*
X103330476Y-109243295D02*
X103330476Y-109338533D01*
X103330476Y-109338533D02*
X103378095Y-109481390D01*
X103378095Y-109481390D02*
X103949523Y-110052819D01*
X103949523Y-110052819D02*
X103330476Y-110052819D01*
X108711904Y-110052819D02*
X108711904Y-109052819D01*
X108711904Y-109529009D02*
X108140476Y-109529009D01*
X108140476Y-110052819D02*
X108140476Y-109052819D01*
X107759523Y-109052819D02*
X107140476Y-109052819D01*
X107140476Y-109052819D02*
X107473809Y-109433771D01*
X107473809Y-109433771D02*
X107330952Y-109433771D01*
X107330952Y-109433771D02*
X107235714Y-109481390D01*
X107235714Y-109481390D02*
X107188095Y-109529009D01*
X107188095Y-109529009D02*
X107140476Y-109624247D01*
X107140476Y-109624247D02*
X107140476Y-109862342D01*
X107140476Y-109862342D02*
X107188095Y-109957580D01*
X107188095Y-109957580D02*
X107235714Y-110005200D01*
X107235714Y-110005200D02*
X107330952Y-110052819D01*
X107330952Y-110052819D02*
X107616666Y-110052819D01*
X107616666Y-110052819D02*
X107711904Y-110005200D01*
X107711904Y-110005200D02*
X107759523Y-109957580D01*
D11*
%TO.C,5V*%
X92390000Y-107950000D02*
G75*
G02*
X90490000Y-107950000I-950000J0D01*
G01*
X90490000Y-107950000D02*
G75*
G02*
X92390000Y-107950000I950000J0D01*
G01*
%TO.C,GND*%
X112710000Y-107950000D02*
G75*
G02*
X110810000Y-107950000I-950000J0D01*
G01*
X110810000Y-107950000D02*
G75*
G02*
X112710000Y-107950000I950000J0D01*
G01*
%TO.C,TMP*%
X96200000Y-107950000D02*
G75*
G02*
X94300000Y-107950000I-950000J0D01*
G01*
X94300000Y-107950000D02*
G75*
G02*
X96200000Y-107950000I950000J0D01*
G01*
%TO.C,C1*%
X94615580Y-99570000D02*
X94334420Y-99570000D01*
X94615580Y-98550000D02*
X94334420Y-98550000D01*
%TO.C,C2*%
X94615580Y-103380000D02*
X94334420Y-103380000D01*
X94615580Y-102360000D02*
X94334420Y-102360000D01*
%TO.C,U1*%
X103910000Y-98990000D02*
X99290000Y-98990000D01*
X103910000Y-99190000D02*
X103910000Y-98990000D01*
X103910000Y-104210000D02*
X103910000Y-104010000D01*
X99290000Y-98990000D02*
X99290000Y-99190000D01*
X99290000Y-104010000D02*
X99290000Y-104210000D01*
X99290000Y-104210000D02*
X103910000Y-104210000D01*
X104550000Y-99190000D02*
X104210000Y-98720000D01*
X104890000Y-98720000D01*
X104550000Y-99190000D01*
G36*
X104550000Y-99190000D02*
G01*
X104210000Y-98720000D01*
X104890000Y-98720000D01*
X104550000Y-99190000D01*
G37*
%TO.C,H1*%
X100010000Y-107950000D02*
G75*
G02*
X98110000Y-107950000I-950000J0D01*
G01*
X98110000Y-107950000D02*
G75*
G02*
X100010000Y-107950000I950000J0D01*
G01*
%TO.C,H2*%
X105090000Y-107950000D02*
G75*
G02*
X103190000Y-107950000I-950000J0D01*
G01*
X103190000Y-107950000D02*
G75*
G02*
X105090000Y-107950000I950000J0D01*
G01*
%TO.C,H3*%
X108900000Y-107950000D02*
G75*
G02*
X107000000Y-107950000I-950000J0D01*
G01*
X107000000Y-107950000D02*
G75*
G02*
X108900000Y-107950000I950000J0D01*
G01*
%TD*%
%LPC*%
D12*
%TO.C,5V*%
X91440000Y-107950000D03*
%TD*%
%TO.C,GND*%
X111760000Y-107950000D03*
%TD*%
D13*
%TO.C,H10*%
X115570000Y-101600000D03*
%TD*%
%TO.C,H11*%
X87630000Y-101600000D03*
%TD*%
%TO.C,H12*%
X101600000Y-115570000D03*
%TD*%
%TO.C,H13*%
X101600000Y-87630000D03*
%TD*%
D12*
%TO.C,TMP*%
X95250000Y-107950000D03*
%TD*%
D14*
%TO.C,C1*%
X93700000Y-99060000D03*
X95250000Y-99060000D03*
%TD*%
%TO.C,C2*%
X93700000Y-102870000D03*
X95250000Y-102870000D03*
%TD*%
D15*
%TO.C,U1*%
X104462500Y-99650000D03*
X104462500Y-100300000D03*
X104462500Y-100950000D03*
X104462500Y-101600000D03*
X104462500Y-102250000D03*
X104462500Y-102900000D03*
X104462500Y-103550000D03*
X98737500Y-103550000D03*
X98737500Y-102900000D03*
X98737500Y-102250000D03*
X98737500Y-101600000D03*
X98737500Y-100950000D03*
X98737500Y-100300000D03*
X98737500Y-99650000D03*
%TD*%
D12*
%TO.C,H1*%
X99060000Y-107950000D03*
%TD*%
%TO.C,H2*%
X104140000Y-107950000D03*
%TD*%
%TO.C,H3*%
X107950000Y-107950000D03*
%TD*%
%LPD*%
M02*
